<svg width="52" height="52" viewBox="0 0 52 52" fill="none" xmlns="http://www.w3.org/2000/svg">
<rect x="0.5" y="0.5" width="51" height="51" rx="14.5" fill="white" stroke="#E8E6EA"/>
<path fill-rule="evenodd" clip-rule="evenodd" d="M36.2071 15.7929C36.4788 16.0646 36.5708 16.4678 36.4439 16.8304L29.7939 35.8304C29.6584 36.2174 29.3004 36.4825 28.8908 36.4992C28.4811 36.5159 28.1027 36.2808 27.9362 35.9062L24.2924 27.7076L16.0939 24.0638C15.7192 23.8973 15.4841 23.5189 15.5008 23.1093C15.5176 22.6996 15.7827 22.3416 16.1697 22.2062L35.1697 15.5562C35.5322 15.4293 35.9355 15.5213 36.2071 15.7929ZM26.2428 27.1715L28.7394 32.789L33.1085 20.3057L26.2428 27.1715ZM31.6943 18.8915L19.2111 23.2606L24.8285 25.7573L31.6943 18.8915Z" fill="#F4749E"/>
</svg>
