<svg width="240" height="240" viewBox="0 0 240 240" fill="none" xmlns="http://www.w3.org/2000/svg">
<g clip-path="url(#clip0_1_1119)">
<g filter="url(#filter0_d_1_1119)">
<rect x="60" y="40" width="160" height="122" rx="20" fill="url(#paint0_linear_1_1119)"/>
</g>
<mask id="mask0_1_1119" style="mask-type:alpha" maskUnits="userSpaceOnUse" x="69" y="40" width="161" height="123">
<rect x="69.6152" y="40" width="160" height="122.353" rx="20" fill="#2934D0"/>
</mask>
<g mask="url(#mask0_1_1119)">
<g filter="url(#filter1_bd_1_1119)">
<path fill-rule="evenodd" clip-rule="evenodd" d="M70.7915 77.7522C59.7458 77.7522 50.7915 86.7065 50.7915 97.7522V163.583C50.7915 174.629 59.7458 183.583 70.7915 183.583H75.4079C72.1762 189.576 68.3066 193.301 63.0623 197.055C62.1738 197.691 62.7736 199.118 63.8431 198.894C80.5762 195.387 91.5373 190.869 99.7279 183.583H169.185C180.231 183.583 189.185 174.629 189.185 163.583V97.7522C189.185 86.7065 180.231 77.7522 169.185 77.7522H70.7915Z" fill="url(#paint1_linear_1_1119)"/>
</g>
</g>
<g filter="url(#filter2_bii_1_1119)">
<path fill-rule="evenodd" clip-rule="evenodd" d="M50 68.7739C38.9543 68.7739 30 77.7282 30 88.7739V171.127C30 182.173 38.9543 191.127 50 191.127H58.4595C54.5935 198.296 49.9379 202.658 43.549 207.155C42.6554 207.784 43.2554 209.208 44.3256 208.987C64.1021 204.91 76.983 199.661 86.5764 191.127H170C181.046 191.127 190 182.173 190 171.127V88.7739C190 77.7282 181.046 68.7739 170 68.7739H50Z" fill="url(#paint2_linear_1_1119)" fill-opacity="0.1"/>
</g>
<g opacity="0.5" filter="url(#filter3_b_1_1119)">
<rect x="56" y="104" width="100" height="20" rx="10" fill="white"/>
</g>
<g opacity="0.5" filter="url(#filter4_b_1_1119)">
<rect x="56" y="144" width="70" height="20" rx="10" fill="white"/>
</g>
</g>
<defs>
<filter id="filter0_d_1_1119" x="50" y="18" width="192" height="154" filterUnits="userSpaceOnUse" color-interpolation-filters="sRGB">
<feFlood flood-opacity="0" result="BackgroundImageFix"/>
<feColorMatrix in="SourceAlpha" type="matrix" values="0 0 0 0 0 0 0 0 0 0 0 0 0 0 0 0 0 0 127 0" result="hardAlpha"/>
<feOffset dx="6" dy="-6"/>
<feGaussianBlur stdDeviation="8"/>
<feColorMatrix type="matrix" values="0 0 0 0 0.94902 0 0 0 0 0.443137 0 0 0 0 0.129412 0 0 0 0.2 0"/>
<feBlend mode="normal" in2="BackgroundImageFix" result="effect1_dropShadow_1_1119"/>
<feBlend mode="normal" in="SourceGraphic" in2="effect1_dropShadow_1_1119" result="shape"/>
</filter>
<filter id="filter1_bd_1_1119" x="30.7915" y="57.7522" width="178.394" height="161.165" filterUnits="userSpaceOnUse" color-interpolation-filters="sRGB">
<feFlood flood-opacity="0" result="BackgroundImageFix"/>
<feGaussianBlur in="BackgroundImageFix" stdDeviation="10"/>
<feComposite in2="SourceAlpha" operator="in" result="effect1_backgroundBlur_1_1119"/>
<feColorMatrix in="SourceAlpha" type="matrix" values="0 0 0 0 0 0 0 0 0 0 0 0 0 0 0 0 0 0 127 0" result="hardAlpha"/>
<feOffset dx="6" dy="-6"/>
<feGaussianBlur stdDeviation="6"/>
<feColorMatrix type="matrix" values="0 0 0 0 0.94902 0 0 0 0 0.443137 0 0 0 0 0.129412 0 0 0 0.5 0"/>
<feBlend mode="normal" in2="effect1_backgroundBlur_1_1119" result="effect2_dropShadow_1_1119"/>
<feBlend mode="normal" in="SourceGraphic" in2="effect2_dropShadow_1_1119" result="shape"/>
</filter>
<filter id="filter2_bii_1_1119" x="10" y="48.7739" width="200" height="180.236" filterUnits="userSpaceOnUse" color-interpolation-filters="sRGB">
<feFlood flood-opacity="0" result="BackgroundImageFix"/>
<feGaussianBlur in="BackgroundImageFix" stdDeviation="10"/>
<feComposite in2="SourceAlpha" operator="in" result="effect1_backgroundBlur_1_1119"/>
<feBlend mode="normal" in="SourceGraphic" in2="effect1_backgroundBlur_1_1119" result="shape"/>
<feColorMatrix in="SourceAlpha" type="matrix" values="0 0 0 0 0 0 0 0 0 0 0 0 0 0 0 0 0 0 127 0" result="hardAlpha"/>
<feOffset dy="10"/>
<feGaussianBlur stdDeviation="5"/>
<feComposite in2="hardAlpha" operator="arithmetic" k2="-1" k3="1"/>
<feColorMatrix type="matrix" values="0 0 0 0 1 0 0 0 0 1 0 0 0 0 1 0 0 0 0.15 0"/>
<feBlend mode="normal" in2="shape" result="effect2_innerShadow_1_1119"/>
<feColorMatrix in="SourceAlpha" type="matrix" values="0 0 0 0 0 0 0 0 0 0 0 0 0 0 0 0 0 0 127 0" result="hardAlpha"/>
<feOffset dy="-10"/>
<feGaussianBlur stdDeviation="5"/>
<feComposite in2="hardAlpha" operator="arithmetic" k2="-1" k3="1"/>
<feColorMatrix type="matrix" values="0 0 0 0 0.94902 0 0 0 0 0.443137 0 0 0 0 0.129412 0 0 0 0.15 0"/>
<feBlend mode="normal" in2="effect2_innerShadow_1_1119" result="effect3_innerShadow_1_1119"/>
</filter>
<filter id="filter3_b_1_1119" x="36" y="84" width="140" height="60" filterUnits="userSpaceOnUse" color-interpolation-filters="sRGB">
<feFlood flood-opacity="0" result="BackgroundImageFix"/>
<feGaussianBlur in="BackgroundImageFix" stdDeviation="10"/>
<feComposite in2="SourceAlpha" operator="in" result="effect1_backgroundBlur_1_1119"/>
<feBlend mode="normal" in="SourceGraphic" in2="effect1_backgroundBlur_1_1119" result="shape"/>
</filter>
<filter id="filter4_b_1_1119" x="36" y="124" width="110" height="60" filterUnits="userSpaceOnUse" color-interpolation-filters="sRGB">
<feFlood flood-opacity="0" result="BackgroundImageFix"/>
<feGaussianBlur in="BackgroundImageFix" stdDeviation="10"/>
<feComposite in2="SourceAlpha" operator="in" result="effect1_backgroundBlur_1_1119"/>
<feBlend mode="normal" in="SourceGraphic" in2="effect1_backgroundBlur_1_1119" result="shape"/>
</filter>
<linearGradient id="paint0_linear_1_1119" x1="220" y1="40" x2="140.323" y2="162.211" gradientUnits="userSpaceOnUse">
<stop stop-color="#FFCE84"/>
<stop offset="1" stop-color="#F27121"/>
</linearGradient>
<linearGradient id="paint1_linear_1_1119" x1="189.185" y1="77.7522" x2="106.206" y2="188.6" gradientUnits="userSpaceOnUse">
<stop stop-color="#FFCE84"/>
<stop offset="1" stop-color="#F27121"/>
</linearGradient>
<linearGradient id="paint2_linear_1_1119" x1="221.059" y1="46.195" x2="91.627" y2="192.788" gradientUnits="userSpaceOnUse">
<stop stop-color="#FFCE84"/>
<stop offset="1" stop-color="#F27121"/>
</linearGradient>
<clipPath id="clip0_1_1119">
<rect width="240" height="240" fill="white"/>
</clipPath>
</defs>
</svg>
