<svg width="16" height="16" viewBox="0 0 16 16" fill="none" xmlns="http://www.w3.org/2000/svg">
<path d="M11.8048 5.13807C12.0652 4.87772 12.0652 4.45561 11.8048 4.19526C11.5445 3.93491 11.1224 3.93491 10.862 4.19526L4.66675 10.3905L1.80482 7.5286C1.54447 7.26825 1.12236 7.26825 0.86201 7.5286C0.601661 7.78894 0.601661 8.21106 0.86201 8.4714L4.19534 11.8047C4.45569 12.0651 4.8778 12.0651 5.13815 11.8047L11.8048 5.13807Z" fill="#E94057"/>
<path d="M15.1382 5.13807C15.3985 4.87772 15.3985 4.45561 15.1382 4.19526C14.8778 3.93491 14.4557 3.93491 14.1953 4.19526L7.99694 10.3937C7.73525 10.1862 7.35384 10.2034 7.11201 10.4453C6.85166 10.7056 6.85166 11.1277 7.11201 11.3881L7.52868 11.8047C7.78903 12.0651 8.21114 12.0651 8.47149 11.8047L15.1382 5.13807Z" fill="#E94057"/>
<path d="M5.55482 7.94526L5.13815 7.5286C4.8778 7.26825 4.45569 7.26825 4.19534 7.5286C3.93499 7.78894 3.93499 8.21106 4.19534 8.4714L4.61201 8.88807C4.87236 9.14842 5.29447 9.14842 5.55482 8.88807C5.81517 8.62772 5.81517 8.20561 5.55482 7.94526Z" fill="#E94057"/>
</svg>
