<svg width="32" height="32" viewBox="0 0 32 32" fill="none" xmlns="http://www.w3.org/2000/svg">
<path d="M5.3335 25.3333V22.9H8.00016V13.3C8.00016 11.4333 8.55572 9.77774 9.66683 8.33329C10.7779 6.88885 12.2224 5.95551 14.0002 5.53329V4.66663C14.0002 4.11107 14.1891 3.6444 14.5668 3.26662C14.9668 2.86663 15.4446 2.66663 16.0002 2.66663C16.5557 2.66663 17.0224 2.86663 17.4002 3.26662C17.8002 3.6444 18.0002 4.11107 18.0002 4.66663V5.53329C19.7779 5.95551 21.2224 6.88885 22.3335 8.33329C23.4446 9.77774 24.0002 11.4333 24.0002 13.3V22.9H26.6668V25.3333H5.3335ZM16.0002 29.3333C15.2668 29.3333 14.6335 29.0777 14.1002 28.5666C13.5891 28.0333 13.3335 27.4 13.3335 26.6666H18.6668C18.6668 27.4 18.4002 28.0333 17.8668 28.5666C17.3557 29.0777 16.7335 29.3333 16.0002 29.3333ZM10.4335 22.9H21.5668V13.3C21.5668 11.7666 21.0224 10.4555 19.9335 9.36662C18.8446 8.27774 17.5335 7.73329 16.0002 7.73329C14.4668 7.73329 13.1557 8.27774 12.0668 9.36662C10.9779 10.4555 10.4335 11.7666 10.4335 13.3V22.9Z" fill="#F4749E"/>
</svg>
