<svg width="24" height="24" viewBox="0 0 24 24" fill="none" xmlns="http://www.w3.org/2000/svg">
<path fill-rule="evenodd" clip-rule="evenodd" d="M18.4285 0C19.1386 0 19.7143 0.575633 19.7143 1.28571V4.28571H22.7143C23.4243 4.28571 24 4.86135 24 5.57143C24 6.2815 23.4243 6.85714 22.7143 6.85714H19.7143V9.85714C19.7143 10.5672 19.1386 11.1429 18.4285 11.1429C17.7185 11.1429 17.1428 10.5672 17.1428 9.85714V6.85714H14.1428C13.4328 6.85714 12.8571 6.2815 12.8571 5.57143C12.8571 4.86135 13.4328 4.28571 14.1428 4.28571H17.1428V1.28571C17.1428 0.575633 17.7185 0 18.4285 0Z" fill="#F4749E"/>
<path fill-rule="evenodd" clip-rule="evenodd" d="M12.1482 2.78246C11.5428 2.64322 10.9177 2.57143 10.2858 2.57143C8.22526 2.57143 6.23824 3.33466 4.76442 4.70995C3.28857 6.08708 2.44725 7.9681 2.44725 9.94308V16.4142C2.44725 16.8149 2.27721 17.2123 1.95282 17.5149C1.57773 17.8649 1.28223 18 0.857205 18C0.383817 18 6.10352e-05 18.3838 6.10352e-05 18.8571C6.10352e-05 19.3305 0.383817 19.7143 0.857205 19.7143H19.7143C20.1878 19.7143 20.5714 19.3305 20.5714 18.8571C20.5714 18.3838 20.1878 18 19.7143 18C19.2893 18 18.9938 17.8649 18.6187 17.5149C18.2944 17.2123 18.1243 16.8149 18.1243 16.4142V13.2724C16.3733 13.1184 15 11.6481 15 9.85714V9H14.1429C12.2493 9 10.7143 7.46497 10.7143 5.57143C10.7143 4.4219 11.28 3.4045 12.1482 2.78246ZM8.57133 21.4286C7.86126 21.4286 7.28562 22.0042 7.28562 22.7143C7.28562 23.4243 7.86126 24 8.57133 24H11.9999C12.71 24 13.2856 23.4243 13.2856 22.7143C13.2856 22.0042 12.71 21.4286 11.9999 21.4286H8.57133Z" fill="#ADAFBB"/>
</svg>
