<?xml version="1.0" encoding="UTF-8"?>
<svg version="1.1" xmlns="http://www.w3.org/2000/svg" width="19" height="19">
<path d="M0 0 C2.31 0 4.62 0 7 0 C7.33 0.66 7.66 1.32 8 2 C9.64363134 2.72159424 11.31050386 3.39351421 13 4 C13.02696365 5.79158489 13.04637917 7.58328473 13.0625 9.375 C13.07410156 10.37273438 13.08570312 11.37046875 13.09765625 12.3984375 C13 15 13 15 12 17 C6.39 17 0.78 17 -5 17 C-6.32229189 14.35541621 -6.09677194 12.32238699 -6.0625 9.375 C-6.05347656 8.37210938 -6.04445313 7.36921875 -6.03515625 6.3359375 C-6.02355469 5.56507813 -6.01195312 4.79421875 -6 4 C-4.7934375 3.566875 -4.7934375 3.566875 -3.5625 3.125 C-0.8673532 2.26737432 -0.8673532 2.26737432 0 0 Z M-3 5 C-3 7.97 -3 10.94 -3 14 C-1.68 13.67 -0.36 13.34 1 13 C0.835 12.21625 0.67 11.4325 0.5 10.625 C0 8 0 8 0 6 C0.66 5.67 1.32 5.34 2 5 C0.35 5 -1.3 5 -3 5 Z M5 5 C5.99 5.495 5.99 5.495 7 6 C7.125 11.75 7.125 11.75 6 14 C7.32 14 8.64 14 10 14 C10 11.03 10 8.06 10 5 C8.35 5 6.7 5 5 5 Z M2 8 C2.33 9.32 2.66 10.64 3 12 C3.66 11.67 4.32 11.34 5 11 C5 10.01 5 9.02 5 8 C4.01 8 3.02 8 2 8 Z " fill="#E74056" transform="translate(6,1)"/>
</svg>
