<?xml version="1.0" encoding="UTF-8"?>
<svg version="1.1" xmlns="http://www.w3.org/2000/svg" width="19" height="19">
<path d="M0 0 C0.66 0.33 1.32 0.66 2 1 C2.12375 1.763125 2.2475 2.52625 2.375 3.3125 C2.76874004 6.15698354 2.76874004 6.15698354 5.125 7.9375 C7 10 7 10 6.9375 13.125 C6 16 6 16 3 18 C0.40625 18.265625 0.40625 18.265625 -2.5 18.25 C-3.93859375 18.25773437 -3.93859375 18.25773437 -5.40625 18.265625 C-8 18 -8 18 -11 16 C-11.9375 13.125 -11.9375 13.125 -12 10 C-10.3125 7.625 -10.3125 7.625 -8 6 C-6.68 6 -5.36 6 -4 6 C-4 5.01 -4 4.02 -4 3 C-3.01 3 -2.02 3 -1 3 C-0.67 2.01 -0.34 1.02 0 0 Z M-6 8 C-5.649375 8.78375 -5.29875 9.5675 -4.9375 10.375 C-4.628125 11.24125 -4.31875 12.1075 -4 13 C-4.33 13.66 -4.66 14.32 -5 15 C-3.35 15 -1.7 15 0 15 C-0.66 14.67 -1.32 14.34 -2 14 C-1.6875 12.125 -1.6875 12.125 -1 10 C-0.01 9.34 0.98 8.68 2 8 C-0.64 8 -3.28 8 -6 8 Z M-8 9 C-8.33 10.65 -8.66 12.3 -9 14 C-8.01 14 -7.02 14 -6 14 C-6.33 12.35 -6.66 10.7 -7 9 C-7.33 9 -7.66 9 -8 9 Z M3 10 C4 14 4 14 4 14 Z " fill="#E84056" transform="translate(12,0)"/>
</svg>
