<?xml version="1.0" encoding="UTF-8"?>
<svg version="1.1" xmlns="http://www.w3.org/2000/svg" width="19" height="19">
<path d="M0 0 C0.94552734 0.16242187 0.94552734 0.16242187 1.91015625 0.328125 C4.22298212 3.79736381 4.33494211 5.25018075 3.91015625 9.328125 C2.53515625 11.203125 2.53515625 11.203125 0.91015625 12.328125 C0.25015625 12.328125 -0.40984375 12.328125 -1.08984375 12.328125 C-1.08984375 13.648125 -1.08984375 14.968125 -1.08984375 16.328125 C0.23015625 16.328125 1.55015625 16.328125 2.91015625 16.328125 C2.91015625 17.318125 2.91015625 18.308125 2.91015625 19.328125 C-0.05984375 19.328125 -3.02984375 19.328125 -6.08984375 19.328125 C-6.41984375 18.338125 -6.74984375 17.348125 -7.08984375 16.328125 C-5.76984375 16.328125 -4.44984375 16.328125 -3.08984375 16.328125 C-3.08984375 15.008125 -3.08984375 13.688125 -3.08984375 12.328125 C-3.72921875 12.01875 -4.36859375 11.709375 -5.02734375 11.390625 C-7.08984375 10.328125 -7.08984375 10.328125 -8.08984375 9.328125 C-8.00390625 7.515625 -8.00390625 7.515625 -7.71484375 5.328125 C-7.62460938 4.60625 -7.534375 3.884375 -7.44140625 3.140625 C-6.6523813 -0.92723695 -3.58193308 0.13001572 0 0 Z M-5.08984375 3.328125 C-5.08984375 3.988125 -5.08984375 4.648125 -5.08984375 5.328125 C-2.11984375 5.823125 -2.11984375 5.823125 0.91015625 6.328125 C0.91015625 5.338125 0.91015625 4.348125 0.91015625 3.328125 C-1.06984375 3.328125 -3.04984375 3.328125 -5.08984375 3.328125 Z M-5.08984375 7.328125 C-5.08984375 7.988125 -5.08984375 8.648125 -5.08984375 9.328125 C-3.19805172 10.0096073 -3.19805172 10.0096073 -1.08984375 10.328125 C-0.42984375 9.668125 0.23015625 9.008125 0.91015625 8.328125 C-2.05984375 7.833125 -2.05984375 7.833125 -5.08984375 7.328125 Z " fill="#E74056" transform="translate(11.08984375,-0.328125)"/>
</svg>
