<?xml version="1.0" encoding="UTF-8"?>
<svg version="1.1" xmlns="http://www.w3.org/2000/svg" width="19" height="19">
<path d="M0 0 C0 5.28 0 10.56 0 16 C-1.98 16 -3.96 16 -6 16 C-5.67 14.35 -5.34 12.7 -5 11 C-4.01 11 -3.02 11 -2 11 C-2 9.68 -2 8.36 -2 7 C-4.31 7.33 -6.62 7.66 -9 8 C-8.95875 9.27875 -8.9175 10.5575 -8.875 11.875 C-8.8046875 14.0546875 -8.8046875 14.0546875 -9 16 C-9.66 16.66 -10.32 17.32 -11 18 C-13.625 17.625 -13.625 17.625 -16 17 C-15.67 15.68 -15.34 14.36 -15 13 C-14.01 13 -13.02 13 -12 13 C-12 9.7 -12 6.4 -12 3 C-10.37604003 2.49663233 -8.75079459 1.99741024 -7.125 1.5 C-6.22007813 1.2215625 -5.31515625 0.943125 -4.3828125 0.65625 C-2 0 -2 0 0 0 Z " fill="#E84056" transform="translate(17,0)"/>
</svg>
