<?xml version="1.0" encoding="UTF-8"?>
<svg version="1.1" xmlns="http://www.w3.org/2000/svg" width="19" height="19">
<path d="M0 0 C0 0.99 0 1.98 0 3 C-0.99 3.33 -1.98 3.66 -3 4 C-3.73323796 6.01508358 -3.73323796 6.01508358 -4 8 C-2.35 8.33 -0.7 8.66 1 9 C-0.32468397 15.3825682 -0.32468397 15.3825682 -3.1875 18 C-6.89718468 19.318999 -9.20727874 18.96541996 -13 18 C-15.375 16.8125 -15.375 16.8125 -17 15 C-17.875 12 -17.875 12 -18 9 C-17.34 8.01 -16.68 7.02 -16 6 C-16.66 6 -17.32 6 -18 6 C-18 5.34 -18 4.68 -18 4 C-17.30132813 3.79503906 -16.60265625 3.59007812 -15.8828125 3.37890625 C-14.97273437 3.10949219 -14.06265625 2.84007812 -13.125 2.5625 C-12.22007813 2.29566406 -11.31515625 2.02882812 -10.3828125 1.75390625 C-6.55335053 0.54228959 -4.13529016 -0.08989761 0 0 Z M-14 6 C-13 8 -13 8 -13 8 Z M-15 11 C-13.42163702 14.68377223 -13.42163702 14.68377223 -12 16 C-7.25222252 16.48001836 -7.25222252 16.48001836 -3.0625 14.625 C-1.81758355 13.04459814 -1.81758355 13.04459814 -2 11 C-6.29 11 -10.58 11 -15 11 Z " fill="#E84056" transform="translate(18,0)"/>
</svg>
