<?xml version="1.0" encoding="UTF-8"?>
<svg version="1.1" xmlns="http://www.w3.org/2000/svg" width="19" height="19">
<path d="M0 0 C3 1 3 1 4.1875 3.0625 C4.455625 3.701875 4.72375 4.34125 5 5 C5.99 5 6.98 5 8 5 C9.65 7.97 11.3 10.94 13 14 C12 15 12 15 8.18359375 15.09765625 C6.60153318 15.09098089 5.01948841 15.07901875 3.4375 15.0625 C2.63119141 15.05798828 1.82488281 15.05347656 0.99414062 15.04882812 C-1.00393756 15.03700518 -3.00197783 15.01906914 -5 15 C-5.33 14.34 -5.66 13.68 -6 13 C-5.10333658 10.75689987 -4.10853317 8.55245679 -3.0625 6.375 C-2.49660156 5.18648437 -1.93070312 3.99796875 -1.34765625 2.7734375 C-0.90292969 1.85820313 -0.45820312 0.94296875 0 0 Z M1 5 C-1.28692024 8.23764755 -1.28692024 8.23764755 -2 12 C-0.02 12 1.96 12 4 12 C3.34 9.69 2.68 7.38 2 5 C1.67 5 1.34 5 1 5 Z M6 10 C6 10.66 6 11.32 6 12 C6.99 11.67 7.98 11.34 9 11 C8.01 10.67 7.02 10.34 6 10 Z " fill="#FFFFFF" transform="translate(6,3)"/>
<path d="M0 0 C1.32 0.33 2.64 0.66 4 1 C4.625 2.875 4.625 2.875 5 5 C4.34 5.66 3.68 6.32 3 7 C0.9375 6.8125 0.9375 6.8125 -1 6 C-1.33 5.01 -1.66 4.02 -2 3 C-1.34 2.01 -0.68 1.02 0 0 Z " fill="#FFFFFF" transform="translate(13,0)"/>
</svg>
