<?xml version="1.0" encoding="UTF-8"?>
<svg version="1.1" xmlns="http://www.w3.org/2000/svg" width="19" height="19">
<path d="M0 0 C2.56721003 1.94275354 3.74753537 3.33085701 4.8828125 6.33984375 C5 9 5 9 3.12890625 11.45703125 C2.28199219 12.23433594 1.43507813 13.01164063 0.5625 13.8125 C-0.70400391 14.99779297 -0.70400391 14.99779297 -1.99609375 16.20703125 C-2.65738281 16.79871094 -3.31867187 17.39039062 -4 18 C-5.1055189 17.06409496 -6.20935453 16.12620142 -7.3125 15.1875 C-7.92738281 14.66542969 -8.54226562 14.14335937 -9.17578125 13.60546875 C-10.85424679 12.12827531 -12.43882034 10.59960869 -14 9 C-12.78727634 2.57256461 -12.78727634 2.57256461 -9.25 0 C-5.54547438 -1.13985404 -3.67411992 -1.19808258 0 0 Z M-10 4 C-10 4.66 -10 5.32 -10 6 C-6.77390955 7.07536348 -4.37822416 7.14375422 -1 7 C-0.34 6.67 0.32 6.34 1 6 C0.67 5.01 0.34 4.02 0 3 C-5.28199593 1.80011955 -5.28199593 1.80011955 -10 4 Z M-5 8 C-5.33 8.66 -5.66 9.32 -6 10 C-5.01 11.485 -5.01 11.485 -4 13 C-3.67 11.68 -3.34 10.36 -3 9 C-3.66 8.67 -4.32 8.34 -5 8 Z M-10 9 C-9.34 9.66 -8.68 10.32 -8 11 C-8 10.34 -8 9.68 -8 9 C-8.66 9 -9.32 9 -10 9 Z M-1 9 C-0.67 9.66 -0.34 10.32 0 11 C0.33 10.34 0.66 9.68 1 9 C0.34 9 -0.32 9 -1 9 Z " fill="#E84056" transform="translate(14,1)"/>
</svg>
