<?xml version="1.0" encoding="UTF-8"?>
<svg version="1.1" xmlns="http://www.w3.org/2000/svg" width="19" height="19">
<path d="M0 0 C2.72101776 2.05914857 3.80198056 3.36024487 4.8125 6.625 C5 9 5 9 4 11 C3.195625 11.268125 2.39125 11.53625 1.5625 11.8125 C-1.23329232 12.78464531 -1.23329232 12.78464531 -2.3125 15.625 C-2.539375 16.40875 -2.76625 17.1925 -3 18 C-6.39145689 17.69168574 -8.53408183 17.33999434 -11.3125 15.3125 C-13.44122671 12.39535598 -13.92776805 10.61159747 -14 7 C-12.76719892 3.43857466 -11.9126825 1.56734318 -8.6875 -0.4375 C-5.36908992 -1.13205095 -3.25219893 -0.96874011 0 0 Z M-7 2 C-7.66 2.66 -8.32 3.32 -9 4 C-7.68 4.33 -6.36 4.66 -5 5 C-4.67 4.01 -4.34 3.02 -4 2 C-4.99 2 -5.98 2 -7 2 Z M-1 3 C-1 4.32 -1 5.64 -1 7 C-2.32 6.67 -3.64 6.34 -5 6 C-5.66 6.99 -6.32 7.98 -7 9 C-6.34 9 -5.68 9 -5 9 C-5.66 10.98 -6.32 12.96 -7 15 C-6.01 15 -5.02 15 -4 15 C-3.7525 14.195625 -3.505 13.39125 -3.25 12.5625 C-2 10 -2 10 0.125 9.1875 C0.74375 9.125625 1.3625 9.06375 2 9 C1.65555119 6.52733235 1.65555119 6.52733235 1 4 C0.34 3.67 -0.32 3.34 -1 3 Z M-11 6 C-11 7.65 -11 9.3 -11 11 C-10.01 10.01 -9.02 9.02 -8 8 C-8.66 8 -9.32 8 -10 8 C-10.33 7.34 -10.66 6.68 -11 6 Z " fill="#E84056" transform="translate(14,1)"/>
</svg>
