<?xml version="1.0" encoding="UTF-8"?>
<svg version="1.1" xmlns="http://www.w3.org/2000/svg" width="19" height="19">
<path d="M0 0 C1.71703125 0.16242187 1.71703125 0.16242187 3.46875 0.328125 C6.5 0.75 6.5 0.75 9.5 1.75 C8.40625 3.265625 8.40625 3.265625 6.5 4.75 C3.46875 4.859375 3.46875 4.859375 0 4.5 C-1.71703125 4.33757813 -1.71703125 4.33757813 -3.46875 4.171875 C-6.5 3.75 -6.5 3.75 -9.5 2.75 C-6.7991733 -0.99257414 -4.34634433 -0.45029693 0 0 Z " fill="#E74056" transform="translate(9.5,7.25)"/>
<path d="M0 0 C4.78029511 -0.37492511 9.2790697 0.27370303 14 1 C14.99 1 15.98 1 17 1 C16.67 1.99 16.34 2.98 16 4 C11.43080193 5.0626042 9.25553879 4.76449169 5 3 C2.6679198 2.92353835 0.33154122 2.90856701 -2 3 C-1.34 2.01 -0.68 1.02 0 0 Z " fill="#E74056" transform="translate(2,12)"/>
<path d="M0 0 C1.299375 0.2475 1.299375 0.2475 2.625 0.5 C4.76563812 0.95066066 6.88267689 1.45106438 9 2 C7 4 7 4 3.8125 4.1875 C0.14796113 4.00727678 -3.3763293 3.5574878 -7 3 C-7.99 3 -8.98 3 -10 3 C-9.67 2.01 -9.34 1.02 -9 0 C-5.45465189 -1.1817827 -3.62850468 -0.72570094 0 0 Z " fill="#E84056" transform="translate(10,3)"/>
</svg>
