<?xml version="1.0" encoding="UTF-8"?>
<svg version="1.1" xmlns="http://www.w3.org/2000/svg" width="19" height="19">
<path d="M0 0 C1.65 0.33 3.3 0.66 5 1 C5 2.32 5 3.64 5 5 C5.66 5 6.32 5 7 5 C6.34 6.32 5.68 7.64 5 9 C3.35 9 1.7 9 0 9 C-0.33 9.66 -0.66 10.32 -1 11 C-0.34 11 0.32 11 1 11 C0.6875 13.375 0.6875 13.375 0 16 C-0.99 16.66 -1.98 17.32 -3 18 C-3.33 17.34 -3.66 16.68 -4 16 C-3.0625 13.875 -3.0625 13.875 -2 12 C-2.9075 12.680625 -3.815 13.36125 -4.75 14.0625 C-8 16 -8 16 -10.203125 15.62109375 C-10.79609375 15.41613281 -11.3890625 15.21117187 -12 15 C-11.43410156 14.51789062 -10.86820313 14.03578125 -10.28515625 13.5390625 C-9.18494141 12.59160156 -9.18494141 12.59160156 -8.0625 11.625 C-7.33160156 10.99851562 -6.60070312 10.37203125 -5.84765625 9.7265625 C-3.91619094 8.12252286 -3.91619094 8.12252286 -3 6 C-4.65 6.33 -6.3 6.66 -8 7 C-8 6.01 -8 5.02 -8 4 C-3.25 2.875 -3.25 2.875 -1 4 C-0.67 2.68 -0.34 1.36 0 0 Z M2 2 C3 4 3 4 3 4 Z " fill="#FFFFFF" transform="translate(12,1)"/>
</svg>
