<?xml version="1.0" encoding="UTF-8"?>
<svg version="1.1" xmlns="http://www.w3.org/2000/svg" width="19" height="19">
<path d="M0 0 C2.87231794 2.09601579 3.8338544 3.49048682 4.9375 6.875 C5.01606404 10.80320182 4.20625381 12.76416108 2 16 C-0.92909251 17.82078724 -2.61842399 18.01557453 -6.0625 17.875 C-9.52739798 16.84290273 -10.87391177 15.91352832 -13 13 C-14.21861894 9.26290192 -14.16658838 7.48125532 -12.875 3.75 C-9.45158247 -1.27101237 -5.6628164 -1.68679638 0 0 Z M-3 2 C-3.598125 2.928125 -4.19625 3.85625 -4.8125 4.8125 C-6.7476602 7.63230486 -8.17370632 9.18309692 -11 11 C-9.68 12.32 -8.36 13.64 -7 15 C-4.77762727 14.11797637 -4.77762727 14.11797637 -3.625 11.625 C-1.99149843 8.98626669 -0.56703686 7.68185174 2 6 C0.68799596 4.64567325 -0.64631404 3.31266518 -2 2 C-2.33 2 -2.66 2 -3 2 Z M-7 2 C-8.32 3.32 -9.64 4.64 -11 6 C-10.01 6.495 -10.01 6.495 -9 7 C-8.01 6.01 -7.02 5.02 -6 4 C-6.33 3.34 -6.66 2.68 -7 2 Z M0 10 C-0.99 10.99 -1.98 11.98 -3 13 C-2.67 13.66 -2.34 14.32 -2 15 C-0.68 13.68 0.64 12.36 2 11 C1.34 10.67 0.68 10.34 0 10 Z " fill="#E84056" transform="translate(14,1)"/>
</svg>
