<?xml version="1.0" encoding="UTF-8"?>
<svg version="1.1" xmlns="http://www.w3.org/2000/svg" width="19" height="19">
<path d="M0 0 C3.125 0.1875 3.125 0.1875 6.125 2.1875 C6.84227778 3.83301962 7.50825228 5.50172289 8.125 7.1875 C9.115 8.6725 9.115 8.6725 10.125 10.1875 C9.8008631 13.50990324 9.51723697 14.79526303 7.125 17.1875 C4.19140625 17.5234375 4.19140625 17.5234375 0.6875 17.5625 C-0.46621094 17.59085938 -1.61992188 17.61921875 -2.80859375 17.6484375 C-5.875 17.1875 -5.875 17.1875 -7.796875 15.328125 C-8.875 13.1875 -8.875 13.1875 -8.6875 10.5625 C-7.875 8.1875 -7.875 8.1875 -5.875 6.1875 C-5.18746699 4.52933216 -4.51938717 2.86290664 -3.875 1.1875 C-2.875 0.1875 -2.875 0.1875 0 0 Z M-0.875 2.1875 C-1.865 3.6725 -1.865 3.6725 -2.875 5.1875 C-0.47780568 5.86708603 -0.47780568 5.86708603 2.125 6.1875 C2.785 5.5275 3.445 4.8675 4.125 4.1875 C3.465 3.5275 2.805 2.8675 2.125 2.1875 C1.135 2.1875 0.145 2.1875 -0.875 2.1875 Z M-5.875 9.1875 C-5.545 10.8375 -5.215 12.4875 -4.875 14.1875 C-2.895 14.6825 -2.895 14.6825 -0.875 15.1875 C-1.65630071 12.69197516 -1.65630071 12.69197516 -2.875 10.1875 C-3.865 9.8575 -4.855 9.5275 -5.875 9.1875 Z M5.125 9.1875 C3.4803326 11.65076712 3.4803326 11.65076712 2.125 14.1875 C3.115 14.5175 4.105 14.8475 5.125 15.1875 C5.785 14.5275 6.445 13.8675 7.125 13.1875 C7.125 11.8675 7.125 10.5475 7.125 9.1875 C6.465 9.1875 5.805 9.1875 5.125 9.1875 Z " fill="#E84056" transform="translate(8.875,0.8125)"/>
</svg>
