<?xml version="1.0" encoding="UTF-8"?>
<svg version="1.1" xmlns="http://www.w3.org/2000/svg" width="19" height="19">
<path d="M0 0 C2.125 0.375 2.125 0.375 4 1 C4.66 3.31 5.32 5.62 6 8 C6.99 8 7.98 8 9 8 C8.62403791 10.78211944 8.32681541 12.5879284 6.5625 14.8125 C5 16 5 16 3 16 C2.67 16.99 2.34 17.98 2 19 C1.34 18.67 0.68 18.34 0 18 C0 17.34 0 16.68 0 16 C-0.61875 15.731875 -1.2375 15.46375 -1.875 15.1875 C-4 14 -4 14 -6 11 C-6 10.01 -6 9.02 -6 8 C-5.01 8 -4.02 8 -3 8 C-2.87625 7.05125 -2.7525 6.1025 -2.625 5.125 C-2 2 -2 2 0 0 Z M0 3 C0 5.64 0 8.28 0 11 C0.99 11 1.98 11 3 11 C3 8.36 3 5.72 3 3 C2.01 3 1.02 3 0 3 Z " fill="#E84056" transform="translate(8,0)"/>
</svg>
