<?xml version="1.0" encoding="UTF-8"?>
<svg version="1.1" xmlns="http://www.w3.org/2000/svg" width="19" height="19">
<path d="M0 0 C1.9375 0.3125 1.9375 0.3125 4 1 C4.33 1.99 4.66 2.98 5 4 C7.01508358 4.73323796 7.01508358 4.73323796 9 5 C9.02685938 7.14576637 9.04633088 9.29162645 9.0625 11.4375 C9.07410156 12.63246094 9.08570313 13.82742188 9.09765625 15.05859375 C9 18 9 18 8 19 C5.83519203 19.0989294 3.66706215 19.129711 1.5 19.125 C0.3140625 19.12757812 -0.871875 19.13015625 -2.09375 19.1328125 C-5 19 -5 19 -6 18 C-6.07258946 15.81360547 -6.08373783 13.62499611 -6.0625 11.4375 C-6.05347656 10.23996094 -6.04445313 9.04242188 -6.03515625 7.80859375 C-6.02355469 6.88175781 -6.01195312 5.95492188 -6 5 C-5.36578125 4.87753906 -4.7315625 4.75507812 -4.078125 4.62890625 C-1.80283433 4.19303909 -1.80283433 4.19303909 -0.75 1.9375 C-0.5025 1.298125 -0.255 0.65875 0 0 Z M-4 7 C-4 9.97 -4 12.94 -4 16 C-0.37 16 3.26 16 7 16 C7 13.03 7 10.06 7 7 C3.37 7 -0.26 7 -4 7 Z " fill="#FFFFFF" transform="translate(8,0)"/>
</svg>
